<?xml version="1.0" encoding="utf-8"?>
<!-- Generator: Adobe Illustrator 25.0.0, SVG Export Plug-In . SVG Version: 6.00 Build 0)  -->
<svg version="1.1" id="katman_1" xmlns="http://www.w3.org/2000/svg" xmlns:xlink="http://www.w3.org/1999/xlink" x="0px" y="0px"
	 viewBox="0 0 80 25" style="enable-background:new 0 0 80 25;" xml:space="preserve">
<style type="text/css">
	.st0{fill:#D32231;}
	.st1{fill:#2B378A;}
</style>
<g id="Layer_2" transform="translate(138.828 38.095)">
	<g id="Layer_1" transform="translate(-0.008 0)">
		<path id="Path_43" class="st0" d="M-100.7-24.9c0,0.4-0.4,0.8-0.8,0.8h-7l0.6-7c0-0.4,0.4-0.8,0.8-0.8h7L-100.7-24.9z M-97-22.6
			l1-10.9c0.1-1.1-0.7-2.2-1.8-2.3c-0.1,0-0.2,0-0.3,0h-10.9c-1.3,0-2.4,1-2.5,2.3l-1,10.9c-0.1,1.1,0.7,2.2,1.8,2.3
			c0.1,0,0.2,0,0.3,0h10.9C-98.2-20.2-97.1-21.2-97-22.6"/>
		<path id="Path_44" class="st0" d="M-63.9-24.9c0,0.4-0.4,0.8-0.8,0.8h-7l0.6-7c0-0.4,0.4-0.8,0.8-0.8h7L-63.9-24.9z M-60.2-22.6
			l1-10.9c0.1-1.1-0.7-2.2-1.8-2.3c-0.1,0-0.2,0-0.3,0h-10.9c-1.3,0-2.4,1-2.6,2.3l-1,10.9c-0.1,1.1,0.7,2.2,1.8,2.3
			c0.1,0,0.2,0,0.3,0h10.9C-61.5-20.2-60.3-21.2-60.2-22.6"/>
		<path id="Path_45" class="st0" d="M-81.7-31.9l-0.6,7c0,0.4-0.4,0.8-0.8,0.8h-7l0.6-7c0-0.4,0.4-0.8,0.8-0.8L-81.7-31.9z
			 M-79.8-35.8h-10.9c-1.3,0-2.4,1-2.5,2.3l-1,10.9c-0.1,1.1,0.7,2.2,1.8,2.3c0.1,0,0.2,0,0.3,0h7.4l-0.1,1.2c0,0.4-0.4,0.8-0.8,0.8
			h-5.1l-0.3,3.1c0,0.4,0.2,0.7,0.6,0.8c0,0,0.1,0,0.1,0h6.6c1.3,0,2.4-1,2.5-2.3l0.3-3.6c1.2-0.1,2.1-1.1,2.2-2.3l1-10.9
			c0.1-1.1-0.7-2.2-1.8-2.3C-79.6-35.9-79.7-35.9-79.8-35.8"/>
		<path id="Path_46" class="st0" d="M-109.9-18.3h-5.9l1.5-17.6h-3.1c-0.5,0-0.8,0.3-0.9,0.8l-1.5,16.8l-0.2,2.1v0
			c-0.1,0.9,0.5,1.7,1.4,1.8c0.1,0,0.2,0,0.3,0h7.2c0.4,0,0.8-0.3,0.8-0.8L-109.9-18.3z"/>
		<path id="Path_47" class="st1" d="M-121.5-35.4c-0.1-0.1-0.3-0.2-0.5-0.3h-0.1c-0.2-0.1-0.5-0.2-0.8-0.2H-134
			c-1.3,0-2.4,1-2.6,2.3l-1,10.9c-0.1,1.1,0.7,2.2,1.8,2.3c0.1,0,0.2,0,0.3,0h10.9c1.3,0,2.4-1,2.5-2.3l0.1-1.6h-7.9l7.9-7.7
			c0.1,0,0.1-0.1,0.2-0.2l0,0l0,0c0.2-0.2,0.4-0.5,0.5-0.8l0,0c0.1-0.2,0.1-0.5,0.1-0.7C-120.7-34.3-121-34.9-121.5-35.4 M-132-32
			h4.8l-6.1,6l0.5-5.2C-132.8-31.6-132.4-32-132-32"/>
	</g>
</g>
</svg>
